<svg width="16" height="16" viewBox="0 0 16 16" fill="none" xmlns="http://www.w3.org/2000/svg">
<path d="M0.396913 0.553943L0.469913 0.469943C0.596902 0.342925 0.765256 0.265697 0.944365 0.252301C1.12347 0.238904 1.30144 0.290229 1.44591 0.396943L1.52991 0.469943L7.99991 6.93894L14.4699 0.468943C14.5391 0.397343 14.6219 0.340246 14.7134 0.300983C14.805 0.26172 14.9034 0.241078 15.003 0.24026C15.1026 0.239442 15.2013 0.258465 15.2935 0.296219C15.3856 0.333973 15.4693 0.389702 15.5397 0.460155C15.6101 0.530607 15.6657 0.614372 15.7034 0.706561C15.7411 0.798751 15.76 0.897519 15.7591 0.997103C15.7582 1.09669 15.7375 1.19509 15.6981 1.28658C15.6588 1.37806 15.6016 1.46079 15.5299 1.52994L9.06091 7.99994L15.5309 14.4699C15.6578 14.5971 15.7348 14.7655 15.748 14.9446C15.7613 15.1237 15.7098 15.3016 15.6029 15.4459L15.5299 15.5299C15.4029 15.657 15.2346 15.7342 15.0555 15.7476C14.8764 15.761 14.6984 15.7097 14.5539 15.6029L14.4699 15.5299L7.99991 9.06094L1.52991 15.5309C1.3884 15.6675 1.19891 15.743 1.00226 15.7412C0.805615 15.7394 0.617542 15.6604 0.478551 15.5213C0.33956 15.3822 0.260772 15.194 0.259156 14.9974C0.257541 14.8007 0.333227 14.6113 0.469913 14.4699L6.93891 7.99994L0.468913 1.52994C0.342045 1.40283 0.265002 1.23441 0.251789 1.0553C0.238577 0.876199 0.290072 0.698298 0.396913 0.553943L0.469913 0.469943L0.396913 0.553943Z" fill="#262626"/>
</svg>
