<svg width="16" height="16" viewBox="0 0 16 16" fill="none" xmlns="http://www.w3.org/2000/svg">
<path d="M6.66667 1.8335C7.58007 1.83338 8.4748 2.09209 9.24719 2.57964C10.0196 3.06719 10.638 3.76362 11.0308 4.58824C11.4236 5.41286 11.5747 6.33191 11.4666 7.23889C11.3585 8.14586 10.9956 9.00364 10.42 9.71283L13.6867 12.9795C13.7764 13.0686 13.829 13.1884 13.8339 13.3147C13.8388 13.441 13.7957 13.5646 13.7132 13.6604C13.6308 13.7562 13.5151 13.8172 13.3894 13.8312C13.2637 13.8451 13.1375 13.8109 13.036 13.7355L12.98 13.6868L9.71267 10.4202C9.11192 10.9076 8.40296 11.2437 7.64535 11.4002C6.88775 11.5567 6.10364 11.5291 5.35892 11.3197C4.6142 11.1102 3.93063 10.7251 3.36566 10.1966C2.8007 9.66818 2.37083 9.01182 2.1122 8.28273C1.85356 7.55364 1.77371 6.77311 1.87936 6.00676C1.98501 5.2404 2.27307 4.5106 2.71933 3.87868C3.16559 3.24676 3.75702 2.7312 4.4439 2.37531C5.13079 2.01943 5.89306 1.83361 6.66667 1.8335ZM6.66667 2.8335C6.16327 2.8335 5.6648 2.93265 5.19972 3.12529C4.73463 3.31793 4.31205 3.6003 3.95609 3.95625C3.60013 4.31221 3.31777 4.73479 3.12513 5.19988C2.93249 5.66496 2.83334 6.16343 2.83334 6.66683C2.83334 7.17023 2.93249 7.6687 3.12513 8.13378C3.31777 8.59886 3.60013 9.02145 3.95609 9.37741C4.31205 9.73336 4.73463 10.0157 5.19972 10.2084C5.6648 10.401 6.16327 10.5002 6.66667 10.5002C7.68333 10.5002 8.65836 10.0963 9.37724 9.37741C10.0961 8.65852 10.5 7.68349 10.5 6.66683C10.5 5.65017 10.0961 4.67514 9.37724 3.95625C8.65836 3.23736 7.68333 2.8335 6.66667 2.8335Z" fill="#262626"/>
</svg>
